<?xml version="1.0" encoding="utf-8"?>
<!-- Generated by Mocodo 4.3.2 -->
<svg width="810" height="238" viewBox="0 0 810 238" xmlns="http://www.w3.org/2000/svg">
<rect x="0" y="0" width="810" height="238" fill="#f5f5f5" stroke="none" stroke-width="0"/>

<!-- Association CONTENIR -->
<g>
	<line x1="50" y1="119" x2="155" y2="119" stroke="#bf812d" stroke-width="2"/>
	<line x1="270" y1="119" x2="155" y2="119" stroke="#bf812d" stroke-width="2"/>
	<g>
		<path d="M173 94 a14 14 90 0 1 14 14 V119 h-64 V108 a14 14 90 0 1 14 -14" fill="#dfc27d" stroke="#dfc27d" stroke-width="0"/>
		<path d="M187 119 v11 a14 14 90 0 1 -14 14 H137 a14 14 90 0 1 -14 -14 V119 H64" fill="#f6e8c3" stroke="#f6e8c3" stroke-width="0"/>
		<rect x="123" y="94" width="64" height="50" fill="none" rx="14" stroke="#bf812d" stroke-width="2"/>
		<line x1="123" y1="119" x2="187" y2="119" stroke="#bf812d" stroke-width="1"/>
		<text x="130" y="111.75" fill="#000000" font-family="Verdana" font-size="12">contenir</text>
	</g>
	<text x="96" y="136" fill="#01665e" font-family="Verdana" font-size="12">1,1</text>
	<text x="192" y="136" fill="#01665e" font-family="Verdana" font-size="12">0,N</text>
</g>

<!-- Association APPARTENIR -->
<g>
	<line x1="514" y1="119" x2="392" y2="119" stroke="#bf812d" stroke-width="2"/>
	<line x1="270" y1="119" x2="392" y2="119" stroke="#bf812d" stroke-width="2"/>
	<g>
		<path d="M417 94 a14 14 90 0 1 14 14 V119 h-78 V108 a14 14 90 0 1 14 -14" fill="#dfc27d" stroke="#dfc27d" stroke-width="0"/>
		<path d="M431 119 v11 a14 14 90 0 1 -14 14 H367 a14 14 90 0 1 -14 -14 V119 H78" fill="#f6e8c3" stroke="#f6e8c3" stroke-width="0"/>
		<rect x="353" y="94" width="78" height="50" fill="none" rx="14" stroke="#bf812d" stroke-width="2"/>
		<line x1="353" y1="119" x2="431" y2="119" stroke="#bf812d" stroke-width="1"/>
		<text x="361" y="111.75" fill="#000000" font-family="Verdana" font-size="12">appartenir</text>
	</g>
	<text x="436" y="136" fill="#01665e" font-family="Verdana" font-size="12">0,N</text>
	<text x="326" y="136" fill="#01665e" font-family="Verdana" font-size="12">1,1</text>
</g>

<!-- Association POSSEDER -->
<g>
	<line x1="750" y1="119" x2="632" y2="119" stroke="#bf812d" stroke-width="2"/>
	<line x1="514" y1="119" x2="632" y2="119" stroke="#bf812d" stroke-width="2"/>
	<g>
		<path d="M653 94 a14 14 90 0 1 14 14 V119 h-70 V108 a14 14 90 0 1 14 -14" fill="#dfc27d" stroke="#dfc27d" stroke-width="0"/>
		<path d="M667 119 v11 a14 14 90 0 1 -14 14 H611 a14 14 90 0 1 -14 -14 V119 H70" fill="#f6e8c3" stroke="#f6e8c3" stroke-width="0"/>
		<rect x="597" y="94" width="70" height="50" fill="none" rx="14" stroke="#bf812d" stroke-width="2"/>
		<line x1="597" y1="119" x2="667" y2="119" stroke="#bf812d" stroke-width="1"/>
		<text x="605" y="111.75" fill="#000000" font-family="Verdana" font-size="12">posseder</text>
	</g>
	<text x="672" y="136" fill="#01665e" font-family="Verdana" font-size="12">0,N</text>
	<text x="570" y="136" fill="#01665e" font-family="Verdana" font-size="12">1,1</text>
</g>

<!-- Entity INVOICEITEM -->
<g>
	<g>
		<rect x="9" y="77" width="82" height="25" fill="#80cdc1" stroke="none" stroke-width="0" opacity="1"/>
		<rect x="9" y="102" width="82" height="59" fill="#c7eae5" stroke="none" stroke-width="0" opacity="1"/>
		<rect x="9" y="77" width="82" height="84" fill="none" stroke="#35978f" stroke-width="2" opacity="1"/>
		<line x1="9" y1="102" x2="91" y2="102" stroke="#35978f" stroke-width="1"/>
	</g>
	<text x="14" y="94.75" fill="#000000" font-family="Verdana" font-size="12">invoiceItem</text>
	<text x="14" y="119.8" fill="#000000" font-family="Verdana" font-size="12">description</text>
	<line x1="14" y1="122" x2="81" y2="122" stroke="#000000" stroke-width="1"/>
	<text x="14" y="136.8" fill="#000000" font-family="Verdana" font-size="12">unitPrice</text>
	<text x="14" y="153.8" fill="#000000" font-family="Verdana" font-size="12">quantity</text>
</g>

<!-- Entity INVOICE -->
<g>
	<g>
		<rect x="219" y="34" width="102" height="25" fill="#80cdc1" stroke="none" stroke-width="0" opacity="1"/>
		<rect x="219" y="59" width="102" height="145" fill="#c7eae5" stroke="none" stroke-width="0" opacity="1"/>
		<rect x="219" y="34" width="102" height="170" fill="none" stroke="#35978f" stroke-width="2" opacity="1"/>
		<line x1="219" y1="59" x2="321" y2="59" stroke="#35978f" stroke-width="1"/>
	</g>
	<text x="249" y="51.75" fill="#000000" font-family="Verdana" font-size="12">invoice</text>
	<text x="224" y="76.8" fill="#000000" font-family="Verdana" font-size="12">invoiceNumber</text>
	<line x1="224" y1="79" x2="315" y2="79" stroke="#000000" stroke-width="1"/>
	<text x="224" y="93.8" fill="#000000" font-family="Verdana" font-size="12">dateCreated</text>
	<text x="224" y="110.8" fill="#000000" font-family="Verdana" font-size="12">dueDate</text>
	<text x="224" y="127.8" fill="#000000" font-family="Verdana" font-size="12">status</text>
	<text x="224" y="144.8" fill="#000000" font-family="Verdana" font-size="12">totalAmount</text>
	<text x="224" y="161.8" fill="#000000" font-family="Verdana" font-size="12">currency</text>
	<text x="224" y="178.8" fill="#000000" font-family="Verdana" font-size="12">paidAt</text>
	<text x="224" y="195.8" fill="#000000" font-family="Verdana" font-size="12">updatedAt</text>
</g>

<!-- Entity CLIENT -->
<g>
	<g>
		<rect x="463" y="34" width="102" height="25" fill="#80cdc1" stroke="none" stroke-width="0" opacity="1"/>
		<rect x="463" y="59" width="102" height="145" fill="#c7eae5" stroke="none" stroke-width="0" opacity="1"/>
		<rect x="463" y="34" width="102" height="170" fill="none" stroke="#35978f" stroke-width="2" opacity="1"/>
		<line x1="463" y1="59" x2="565" y2="59" stroke="#35978f" stroke-width="1"/>
	</g>
	<text x="498" y="51.75" fill="#000000" font-family="Verdana" font-size="12">client</text>
	<text x="468" y="76.8" fill="#000000" font-family="Verdana" font-size="12">lastName</text>
	<line x1="468" y1="79" x2="526" y2="79" stroke="#000000" stroke-width="1"/>
	<text x="468" y="93.8" fill="#000000" font-family="Verdana" font-size="12">firstName</text>
	<text x="468" y="110.8" fill="#000000" font-family="Verdana" font-size="12">companyName</text>
	<text x="468" y="127.8" fill="#000000" font-family="Verdana" font-size="12">email</text>
	<text x="468" y="144.8" fill="#000000" font-family="Verdana" font-size="12">address</text>
	<text x="468" y="161.8" fill="#000000" font-family="Verdana" font-size="12">phoneNumber</text>
	<text x="468" y="178.8" fill="#000000" font-family="Verdana" font-size="12">createdAt</text>
	<text x="468" y="195.8" fill="#000000" font-family="Verdana" font-size="12">updatedAt</text>
</g>

<!-- Entity USER -->
<g>
	<g>
		<rect x="699" y="9" width="102" height="25" fill="#80cdc1" stroke="none" stroke-width="0" opacity="1"/>
		<rect x="699" y="34" width="102" height="195" fill="#c7eae5" stroke="none" stroke-width="0" opacity="1"/>
		<rect x="699" y="9" width="102" height="220" fill="none" stroke="#35978f" stroke-width="2" opacity="1"/>
		<line x1="699" y1="34" x2="801" y2="34" stroke="#35978f" stroke-width="1"/>
	</g>
	<text x="737" y="26.75" fill="#000000" font-family="Verdana" font-size="12">user</text>
	<text x="704" y="51.8" fill="#000000" font-family="Verdana" font-size="12">email</text>
	<line x1="704" y1="54" x2="738" y2="54" stroke="#000000" stroke-width="1"/>
	<text x="704" y="68.8" fill="#000000" font-family="Verdana" font-size="12">password</text>
	<text x="704" y="85.8" fill="#000000" font-family="Verdana" font-size="12">lastName</text>
	<text x="704" y="102.8" fill="#000000" font-family="Verdana" font-size="12">firstName</text>
	<text x="704" y="119.8" fill="#000000" font-family="Verdana" font-size="12">companyName</text>
	<text x="704" y="136.8" fill="#000000" font-family="Verdana" font-size="12">address</text>
	<text x="704" y="153.8" fill="#000000" font-family="Verdana" font-size="12">siretNumber</text>
	<text x="704" y="170.8" fill="#000000" font-family="Verdana" font-size="12">vatNumber</text>
	<text x="704" y="187.8" fill="#000000" font-family="Verdana" font-size="12">phoneNumber</text>
	<text x="704" y="204.8" fill="#000000" font-family="Verdana" font-size="12">createdAt</text>
	<text x="704" y="221.8" fill="#000000" font-family="Verdana" font-size="12">updatedAt</text>
</g>
</svg>